<?xml version="1.0" standalone="no"?><!DOCTYPE svg PUBLIC "-//W3C//DTD SVG 1.1//EN" "http://www.w3.org/Graphics/SVG/1.1/DTD/svg11.dtd"><svg t="1626416929771" class="icon" viewBox="0 0 1024 1024" version="1.1" xmlns="http://www.w3.org/2000/svg" p-id="2446" width="128" height="128" xmlns:xlink="http://www.w3.org/1999/xlink"><defs><style type="text/css"></style></defs><path d="M364.218735 512.243462a41.388493 41.388493 0 0 0 40.901569 41.388492H633.000476a40.901569 40.901569 0 0 0 0-82.290061H405.120304a41.388493 41.388493 0 0 0-40.901569 40.901569z m-204.507846 29.70233a40.901569 40.901569 0 0 0 57.94389 0l160.197813-160.684736a40.901569 40.901569 0 0 0 0-57.94389L217.654779 160.684736a40.901569 40.901569 0 1 0-58.430813 57.94389L292.154066 351.558726 159.223966 483.514979a40.901569 40.901569 0 0 0 0 58.430813z m781.999049 399.764146H82.290062V82.290062h859.419876z m0-941.709938H82.290062A82.290062 82.290062 0 0 0 0 82.290062v859.419876A82.290062 82.290062 0 0 0 82.290062 1022.53923h859.419876A82.290062 82.290062 0 0 0 1022.53923 941.709938V82.290062A82.290062 82.290062 0 0 0 941.709938 0z" fill="#5E5C5C" p-id="2447"></path></svg>